<svg xmlns="http://www.w3.org/2000/svg" viewBox="0 0 24 24" fill="currentColor">
  <path d="M11.25 24c-2.068 0-3.75-1.682-3.75-3.75V16.5H3.75C1.682 16.5 0 14.818 0 12.75v-1.5C0 9.182 1.682 7.5 3.75 7.5H7.5V3.75C7.5 1.682 9.182 0 11.25 0h1.5c2.068 0 3.75 1.682 3.75 3.75V7.5h3.75c2.068 0 3.75 1.682 3.75 3.75v1.5c0 2.068-1.682 3.75-3.75 3.75H16.5v3.75c0 2.068-1.682 3.75-3.75 3.75h-1.5zM3.75 9C2.509 9 1.5 10.009 1.5 11.25v1.5C1.5 13.991 2.509 15 3.75 15h4.5c.414 0 .75.336.75.75v4.5c0 1.241 1.009 2.25 2.25 2.25h1.5c1.241 0 2.25-1.009 2.25-2.25v-4.5c0-.414.336-.75.75-.75h4.5c1.241 0 2.25-1.009 2.25-2.25v-1.5c0-1.241-1.009-2.25-2.25-2.25h-4.5c-.414 0-.75-.336-.75-.75v-4.5c0-1.241-1.009-2.25-2.25-2.25h-1.5C10.009 1.5 9 2.509 9 3.75v4.5c0 .414-.336.75-.75.75h-4.5z"/>
</svg>
