<svg xmlns="http://www.w3.org/2000/svg" viewBox="0 0 24 24" fill="currentColor">
  <path d="M12 17.25c-.414 0-.75-.336-.75-.75v-3.75H7.5c-.414 0-.75-.336-.75-.75s.336-.75.75-.75h3.75V7.5c0-.414.336-.75.75-.75s.75.336.75.75v3.75h3.75c.414 0 .75.336.75.75s-.336.75-.75.75h-3.75v3.75c0 .414-.336.75-.75.75z"/><path d="M3.75 24C1.682 24 0 22.318 0 20.25V3.75C0 1.682 1.682 0 3.75 0h16.5C22.318 0 24 1.682 24 3.75v16.5c0 2.068-1.682 3.75-3.75 3.75H3.75zm0-22.5C2.509 1.5 1.5 2.509 1.5 3.75v16.5c0 1.241 1.009 2.25 2.25 2.25h16.5c1.241 0 2.25-1.009 2.25-2.25V3.75c0-1.241-1.009-2.25-2.25-2.25H3.75z"/>
</svg>
