<svg xmlns="http://www.w3.org/2000/svg" viewBox="0 0 24 24"><path d="M2.252 24c-1.241 0-2.25-1.009-2.25-2.25V5.25C.002 4.009 1.011 3 2.252 3h3.75V.75c0-.414.336-.75.75-.75s.75.336.75.75V3h9V.75c0-.414.336-.75.75-.75s.75.336.75.75V3h3.75c1.241 0 2.25 1.009 2.25 2.25v16.5c0 1.241-1.009 2.25-2.25 2.25h-19.5zm-.75-2.25c0 .414.336.75.75.75h19.5c.414 0 .75-.336.75-.75V10.5h-21v11.25zm21-12.75V5.25c0-.414-.336-.75-.75-.75h-3.75V6c0 .414-.336.75-.75.75s-.75-.336-.75-.75V4.5h-9V6c0 .414-.336.75-.75.75s-.75-.336-.75-.75V4.5h-3.75c-.414 0-.75.336-.75.75V9h21z"/></svg>