<svg id="Layer_1" data-name="Layer 1" xmlns="http://www.w3.org/2000/svg" viewBox="0 0 256.38 255.83" pointer-events="auto">
  <defs>
    <style>
      .cls-1{fill:#fdbd50;}.cls-1,.cls-2,.cls-3,.cls-4{fill-rule:evenodd;}.cls-2{fill:#f5a800;}.cls-3{fill:#ffd28b;}.cls-4{fill:#ffe8c4;}.cls-5{fill:none;stroke:#002840;stroke-miterlimit:10;stroke-width:0.5px;}.cls-6,.cls-7{fill:#002840;}.cls-14,.cls-7,.cls-9{font-size:5px;font-family:Verdana;}.cls-8{letter-spacing:-0.01em;}.cls-9{fill:#231f20;}.cls-10{letter-spacing:-0.02em;}.cls-11{letter-spacing:-0.01em;}.cls-12{letter-spacing:0em;}.cls-13{letter-spacing:-0.02em;}.cls-14{fill:#cd8b2a;}.cls-15{letter-spacing:-0.01em;}.cls-16{letter-spacing:-0.05em;}.cls-17{letter-spacing:-0.01em;}
    </style>
  </defs>
  <title>Carte_VD-AJE</title>
  <polygon id="Ollon" class="cls-1"
           points="121.29 105.94 122.96 105.94 125.35 105.94 128.75 105.94 142.99 111.61 146.5 109.33 150.45 111.61 150.45 113.39 158.46 111.61 160.74 113.39 164.24 115.67 164.24 121.29 170.48 117.34 173.98 117.34 180.21 115.67 181.99 107.66 191.73 117.34 195.68 117.34 197.96 119.07 197.96 123.69 195.68 129.36 199.07 131.14 199.07 134.53 197.96 134.53 197.96 139.04 193.4 136.81 183.72 134.53 181.99 134.53 177.93 133.42 165.97 136.81 152.73 146.55 152.73 148.89 146.5 152.28 146.5 158.63 140.71 160.3 136.76 160.3 133.25 160.3 133.25 158.63 127.64 156.79 119.57 162.02 117.9 162.02 113.28 168.36 107.6 172.31 101.82 173.98 85.79 176.38 76.06 179.77 72.66 173.98 70.44 164.3 68.6 158.63 62.98 152.28 68.6 146.55 78.34 142.55 78.34 140.88 84.68 136.81 97.87 131.14 103.54 124.8 111.56 123.69 119.57 111.61 121.29 111.61 125.35 113.39 121.29 107.66 121.29 105.94"/>
  <polygon id="Bex" class="cls-2"
           points="201.47 140.88 205.42 139.04 226.56 140.88 228.9 148.89 232.29 154.56 230.62 156.79 230.62 158.63 228.9 158.63 224.84 162.02 228.9 172.31 226.56 173.98 224.84 176.38 219.22 176.38 215.1 183.72 213.43 183.72 208.81 189.5 203.69 191.73 201.47 195.24 201.47 199.8 193.4 204.97 187.67 207.25 183.72 207.25 181.99 207.25 180.21 215.27 181.99 221.05 176.21 225 176.21 226.67 170.48 232.46 162.57 236.96 158.46 242.75 148.78 244.42 146.5 242.75 144.83 240.47 146.5 236.96 144.83 234.74 139.04 228.4 135.09 219.22 131.03 219.22 119.57 215.27 111.56 219.22 101.82 222.72 97.87 219.22 97.87 211.21 93.81 207.25 90.41 199.8 88.19 191.73 82.4 185.56 76.06 179.77 85.79 176.38 101.82 173.98 107.61 172.31 113.28 168.36 117.9 162.02 119.57 162.02 127.64 156.79 133.25 158.63 133.25 160.29 136.76 160.29 136.76 164.3 135.09 166.53 133.25 173.98 135.09 173.98 136.76 178.04 142.99 178.04 148.78 173.98 148.78 172.31 152.73 168.36 165.97 162.02 168.19 164.3 173.98 164.3 180.21 160.29 180.21 152.28 181.99 150.61 195.68 142.55 201.47 140.88"/>
  <polygon id="Lavey" class="cls-3"
           points="101.82 222.72 111.56 219.22 119.57 215.27 131.03 219.22 135.09 219.22 139.04 228.4 144.83 234.74 146.5 236.96 144.83 240.47 146.5 242.75 140.71 244.42 131.03 250.21 119.57 255.82 111.56 242.75 105.83 238.24 101.82 222.72"/>
  <polygon id="Gryon" class="cls-4"
           points="197.96 139.04 201.47 140.88 195.68 142.55 181.99 150.61 180.21 152.28 180.21 160.29 173.98 164.3 168.19 164.3 165.97 162.02 152.73 168.36 148.78 172.31 148.78 173.98 142.99 178.04 136.76 178.04 135.09 173.98 133.25 173.98 135.09 166.53 136.76 164.3 136.76 160.29 140.71 160.29 146.5 158.63 146.5 152.28 152.73 148.89 152.73 146.55 165.97 136.81 177.93 133.42 181.99 134.53 183.72 134.53 193.4 136.81 197.96 139.04"/>
  <polygon id="Aigle" class="cls-4"
           points="119.57 101.87 121.29 105.94 121.29 107.66 125.35 113.39 121.29 111.61 119.57 111.61 111.56 123.69 103.54 124.8 97.87 131.14 84.68 136.81 78.34 140.88 78.34 142.55 68.6 146.55 62.98 152.28 54.92 148.89 52.69 144.83 49.19 127.08 50.97 119.07 50.97 117.34 54.92 119.07 70.44 117.34 72.66 119.07 82.4 113.39 82.4 121.29 85.8 123.69 101.82 117.34 107.61 113.39 119.57 101.87"/>
  <polygon id="Chessel" class="cls-4"
           points="19.97 78.45 24.09 80.73 25.76 81.84 27.43 81.84 29.71 84.13 29.71 81.84 35.5 90.47 33.22 91.58 31.44 93.86 35.5 96.2 25.76 103.54 19.97 96.2 15.47 90.47 15.47 88.19 19.97 78.45"/>
  <polygon id="Leysin" class="cls-3"
           points="88.19 97.92 92.14 93.86 96.09 93.86 97.87 90.47 97.87 81.84 93.81 72.72 96.09 72.72 97.87 72.72 103.54 68.77 107.61 58.92 113.28 58.92 119.57 60.7 125.35 66.38 122.96 78.45 121.29 84.13 119.57 84.13 119.57 86.52 119.57 90.47 117.9 90.47 119.57 97.92 117.9 99.59 119.57 101.87 107.61 113.39 101.82 117.34 85.79 123.69 82.4 121.29 82.4 113.39 85.79 105.94 88.19 97.92"/>
  <polygon id="Noville" class="cls-2"
           points="41.84 46.9 47.46 58.92 42.95 58.92 37.17 62.98 39.45 64.65 33.22 66.38 33.22 70.44 33.22 78.45 31.44 78.45 29.71 81.84 29.71 84.13 27.43 81.84 25.76 81.84 24.09 80.73 19.97 78.45 17.75 66.38 11.96 62.98 0 48.63 6.34 51.02 10.29 48.63 19.97 46.9 25.76 48.63 29.71 46.9 41.84 48.63 41.84 46.9"/>
  <polygon id="Ormont-Dessous" class="cls-2"
           points="105.82 38.89 109.89 35.5 127.64 17.75 142.99 17.75 146.5 20.03 150.45 38.89 154.51 38.89 156.23 33.22 164.24 27.49 177.93 33.22 180.21 35.5 183.72 38.89 187.67 48.63 191.73 58.92 191.73 64.65 187.67 66.38 180.21 66.38 164.24 72.72 165.97 74.39 162.57 80.73 165.97 88.19 162.57 88.19 160.74 91.58 168.19 96.2 170.48 99.59 168.19 105.94 170.48 107.66 171.59 107.66 176.21 105.94 181.99 107.66 180.21 115.67 173.98 117.34 170.48 117.34 164.24 121.29 164.24 115.67 160.74 113.39 158.46 111.61 150.45 113.39 150.45 111.61 146.5 109.33 142.99 111.61 128.75 105.94 125.35 105.94 122.96 105.94 121.29 105.94 119.57 101.87 117.9 99.59 119.57 97.92 117.9 90.47 119.57 90.47 119.57 86.52 119.57 84.13 121.29 84.13 122.96 78.45 125.35 66.38 119.57 60.7 113.28 58.92 107.6 58.92 107.6 54.97 105.82 53.25 107.6 45.23 105.82 43.51 105.82 38.89"/>
  <polygon id="Villeneuve" class="cls-1"
           points="113.28 0 115.5 3.95 111.56 5.67 107.6 10.29 109.89 21.14 119.57 21.14 125.17 19.9 125.35 17.75 127.64 17.75 109.89 35.5 105.83 38.89 100.15 41.17 96.09 46.9 93.81 45.23 90.41 51.02 84.68 56.64 68.6 60.7 62.98 70.44 60.7 70.44 58.87 72.72 54.92 72.72 50.97 74.39 45.18 72.72 47.46 62.98 47.46 58.92 41.84 46.9 45.18 46.9 45.18 41.17 49.19 38.89 49.19 35.5 54.92 35.5 58.87 31.44 62.98 29.71 64.65 25.76 78.34 16.08 80.12 11.96 84.68 13.69 96.09 8.01 105.83 5.67 113.28 0"/>
  <polygon id="Yvorne" class="cls-2"
           points="35.5 96.2 39.45 96.2 50.97 93.86 50.97 91.58 54.91 90.47 60.7 84.13 64.65 86.52 66.93 90.47 62.98 91.58 62.98 93.86 66.93 107.66 68.6 107.66 70.44 105.94 72.66 105.94 76.06 101.87 88.19 93.86 88.19 97.92 85.79 105.94 82.4 113.39 72.66 119.07 70.44 117.34 54.91 119.07 50.97 117.34 49.19 113.39 41.84 103.54 29.71 105.94 25.76 103.54 35.5 96.2"/>
  <polygon id="Corbeyrier" class="cls-4"
           points="105.82 38.89 105.82 43.51 107.6 45.23 105.82 53.25 107.6 54.97 107.6 58.92 103.54 68.77 97.87 72.72 96.09 72.72 93.81 72.72 97.87 81.84 97.87 90.47 96.09 93.86 92.14 93.86 88.19 97.92 88.19 93.86 76.06 101.87 72.66 105.94 70.44 105.94 68.6 107.66 66.93 107.66 62.98 93.86 62.98 91.58 66.93 90.47 64.65 86.52 60.7 84.13 64.65 80.73 62.98 78.45 60.7 80.73 60.7 78.45 58.87 76.11 58.87 74.39 57.2 72.72 54.91 72.72 58.87 72.72 60.7 70.44 62.98 70.44 68.6 60.7 84.68 56.64 90.41 51.02 93.81 45.23 96.09 46.9 100.15 41.17 105.82 38.89"/>
  <polygon id="Ormont-Dessus" class="cls-3"
           points="191.73 64.65 195.68 64.65 199.07 62.98 205.42 62.98 213.43 64.65 215.1 64.65 216.82 64.65 220.88 64.65 224.84 68.77 230.62 66.38 240.91 66.38 240.91 70.44 242.03 72.72 242.03 76.11 246.65 81.84 248.37 81.84 253.99 80.73 253.99 81.84 256.38 81.84 253.99 86.52 248.37 88.19 250.04 96.2 250.04 115.67 234.57 131.14 226.56 140.88 205.42 139.04 201.47 140.88 197.96 139.04 197.96 134.53 199.07 134.53 199.07 131.14 195.68 129.36 197.96 123.68 197.96 119.07 195.68 117.34 191.73 117.34 181.99 107.66 176.21 105.94 171.59 107.66 170.48 107.66 168.19 105.94 170.48 99.59 168.19 96.2 160.74 91.58 162.58 88.19 165.97 88.19 162.58 80.73 165.97 74.39 164.25 72.72 180.21 66.38 187.67 66.38 191.73 64.65"/>
  <polygon id="Rennaz" class="cls-4"
           points="47.46 58.92 47.46 62.98 45.18 72.72 45.18 74.39 42.95 76.11 41.84 74.39 39.45 74.39 33.22 78.45 33.22 70.44 33.22 66.38 39.45 64.65 37.17 62.98 42.95 58.92 47.46 58.92"/>
  <polygon id="Roche" class="cls-3"
           points="45.18 72.72 50.97 74.39 54.91 72.72 57.2 72.72 58.87 74.39 58.87 76.11 60.7 78.45 60.7 80.73 62.98 78.45 64.65 80.73 60.7 84.13 54.91 90.47 50.97 91.58 50.97 93.86 39.45 96.2 35.5 96.2 31.44 93.86 33.22 91.58 35.5 90.47 29.71 81.84 31.44 78.45 33.22 78.45 39.45 74.39 41.84 74.39 42.95 76.11 45.18 74.39 45.18 72.72"/>
  <g id="La_Marelle_villeneuve" data-city="villeneuve" data-name="La Marelle_villeneuve">
    <rect class="cls-5" x="57.35" y="35.64" width="5" height="5" rx="2.5"/>
    <rect class="cls-6" x="59.1" y="37.39" width="1.5" height="1.5" rx="0.74"/>
  </g>
  <g id="aje-structure_1" class="aje-structure" data-city="villeneuve" data-name="Espace 1000 pattes_villeneuve">
    <rect class="cls-5" x="49.92" y="43.01" width="5" height="5" rx="2.5"/>
    <rect class="cls-6" x="51.67" y="44.76" width="1.5" height="1.5" rx="0.74"/>
  </g>
  <g id="aje-structure_2" class="aje-structure" data-city="rennaz" data-name="Crèche de Rennaz_rennaz">
    <rect class="cls-5" x="40.64" y="62.04" width="5" height="5" rx="2.5"/>
    <rect class="cls-6" x="42.39" y="63.79" width="1.5" height="1.5" rx="0.74"/>
  </g>
  <g id="aje-structure_3" class="aje-structure" data-city="roche" data-name="La Cédille_roche">
    <rect class="cls-5" x="34.65" y="79.13" width="5" height="5" rx="2.5"/>
    <rect class="cls-6" x="36.4" y="80.88" width="1.5" height="1.5" rx="0.74"/>
  </g>
  <g id="aje-structure_4" class="aje-structure" data-city="aigle" data-name="Pop e poppa grand&apos;eau_aigle">
    <rect class="cls-5" x="56.97" y="123.57" width="5" height="5" rx="2.5"/>
    <rect class="cls-6" x="58.72" y="125.32" width="1.5" height="1.5" rx="0.74"/>
  </g>
  <g id="aje-structure_4" class="aje-structure" data-city="aigle" data-name="Les Petits Pirates_aigle">
    <rect class="cls-5" x="53.17" y="130.82" width="5" height="5" rx="2.5"/>
    <rect class="cls-6" x="54.92" y="132.57" width="1.5" height="1.5" rx="0.74"/>
  </g>
  <g id="aje-structure_5" class="aje-structure" data-city="aigle" data-name="Pop e poppa aigle_aigle">
    <rect class="cls-5" x="62.15" y="130.07" width="5" height="5" rx="2.5"/>
    <rect class="cls-6" x="63.9" y="131.82" width="1.5" height="1.5" rx="0.74"/>
  </g>
  <g id="aje-structure_6" class="aje-structure" data-city="ollon" data-name="Les Lapins Bleus_ollon">
    <rect class="cls-5" x="76.26" y="150.73" width="5" height="5" rx="2.5"/>
    <rect class="cls-6" x="78.01" y="152.48" width="1.5" height="1.5" rx="0.74"/>
  </g>
  <g id="aje-structure_7" class="aje-structure" data-city="ollon" data-name="Le Trait d&apos;Union_ollon">
    <rect class="cls-5" x="76.06" y="158.59" width="5" height="5" rx="2.5"/>
    <rect class="cls-6" x="77.81" y="160.34" width="1.5" height="1.5" rx="0.74"/>
  </g>
  <g id="aje-structure_8" class="aje-structure" data-city="ollon" data-name="Glob&apos;Trott_villars_sur_ollon">
    <rect class="cls-5" x="117.33" y="123.91" width="5" height="5" rx="2.5"/>
    <rect class="cls-6" x="119.08" y="125.66" width="1.5" height="1.5" rx="0.74"/>
  </g>
  <g id="aje-structure_9" class="aje-structure" data-city="ollon" data-name="La Trottinette_villars_sur_ollon">
    <rect class="cls-5" x="122.82" y="131.43" width="5" height="5" rx="2.5"/>
    <rect class="cls-6" x="124.57" y="133.18" width="1.5" height="1.5" rx="0.74"/>
  </g>
  <g id="aje-structure_10" class="aje-structure" data-city="gryon" data-name="Le Baobab_gryon">
    <rect class="cls-5" x="154.7" y="147.28" width="5" height="5" rx="2.5"/>
    <rect class="cls-6" x="156.45" y="149.03" width="1.5" height="1.5" rx="0.74"/>
  </g>
  <g id="aje-structure_11" class="aje-structure" data-city="gryon" data-name="L&apos;Arbre à musique_gryon">
    <rect class="cls-5" x="148.78" y="154.98" width="5" height="5" rx="2.5"/>
    <rect class="cls-6" x="150.53" y="156.73" width="1.5" height="1.5" rx="0.74"/>
  </g>
  <g id="aje-structure_12" class="aje-structure" data-city="ormont-dessus" data-name="Les Lucioles_ormont-dessus">
    <rect class="cls-5" x="179.44" y="88.5" width="5" height="5" rx="2.5"/>
    <rect class="cls-6" x="181.19" y="90.25" width="1.5" height="1.5" rx="0.74"/>
  </g>
  <g id="aje-structure_13" class="aje-structure" data-city="leysin" data-name="L&apos;Arc-en-Ciel_leysin">
    <rect class="cls-5" x="88.94" y="99.1" width="5" height="5" rx="2.5"/>
    <rect class="cls-6" x="90.69" y="100.85" width="1.5" height="1.5" rx="0.74"/>
  </g>
  <g id="aje-structure_14" class="aje-structure" data-city="bex" data-name="Le Mille Pattes_bex">
    <rect class="cls-5" x="96.59" y="189.96" width="5" height="5" rx="2.5"/>
    <rect class="cls-6" x="98.34" y="191.71" width="1.5" height="1.5" rx="0.74"/>
  </g>
  <g id="aje-structure_15" class="aje-structure" data-city="bex" data-name="Pop e poppa_bex">
    <rect class="cls-5" x="96.59" y="198.98" width="5" height="5" rx="2.5"/>
    <rect class="cls-6" x="98.34" y="200.73" width="1.5" height="1.5" rx="0.74"/>
  </g>
  <g id="aje-structure_16" class="aje-structure" data-city="bex" data-name="Croc&apos;Pom_bex">
    <rect class="cls-5" x="106.01" y="193.98" width="5" height="5" rx="2.5"/>
    <rect class="cls-6" x="107.76" y="195.73" width="1.5" height="1.5" rx="0.74"/>
  </g>
  <text class="cls-text cls-7" transform="translate(65.54 39.5)">Villeneuve</text>
  <text class="cls-text cls-9" transform="translate(48.6 66.08)">Rennaz</text>
  <text class="cls-text cls-9" transform="translate(42.78 83.46)">Roche</text>
  <text class="cls-text cls-9" transform="translate(65.31 127.41)">Aigle</text>
  <text class="cls-text cls-9" transform="translate(84.74 154.98)">Ollon</text>
  <text class="cls-text cls-9" transform="translate(124.95 127.57)">Villars-sur-Ollon</text>
  <text class="cls-text cls-9" transform="translate(156.91 159.1)">Gryon</text>
  <text class="cls-text cls-9" transform="translate(116.2 197.23)">Bex</text>
  <text class="cls-text cls-9" transform="translate(96.06 102.97)">Leysin</text>
  <text class="cls-text cls-9" transform="translate(188.25 92.51)">Ormont-Dessus</text>
  <text class="cls-text cls-text--light cls-14" transform="translate(126.07 56.29)">Ormont-Dessous</text>
  <text class="cls-text cls-text--light cls-14" transform="translate(65.31 76.11)">Corbeyrier</text>
  <text class="cls-text cls-text--light cls-14" transform="translate(16.19 58.37)">Noville</text>
  <text class="cls-text cls-text--light cls-14" transform="translate(18.37 92.51)">Chessel</text>
  <text class="cls-text cls-text--light cls-14" transform="translate(45.32 103.89)">Yvorne</text>
  <text class="cls-text cls-text--light cls-14" transform="translate(116.2 236.31)">Lavey
  </text>
</svg>
