<svg width="12" height="12" viewBox="0 0 12 12" fill="currentColor" xmlns="http://www.w3.org/2000/svg">
  <path d="M9.60938 12.0234H2.39062C1.75682 12.0227 1.14919 11.7706 0.70102 11.3224C0.252852 10.8742 0.00074434 10.2666 0 9.63281L0 2.41406C0.00074434 1.78026 0.252852 1.17263 0.70102 0.724457C1.14919 0.27629 1.75682 0.0241818 2.39062 0.0234375H9.60938C10.2432 0.0241818 10.8508 0.27629 11.299 0.724457C11.7471 1.17263 11.9993 1.78026 12 2.41406V9.63281C11.9993 10.2666 11.7471 10.8742 11.299 11.3224C10.8508 11.7706 10.2432 12.0227 9.60938 12.0234ZM2.39062 0.960938C2.00537 0.961372 1.63601 1.11461 1.36359 1.38703C1.09117 1.65945 0.937934 2.0288 0.9375 2.41406V9.63281C0.937934 10.0181 1.09117 10.3874 1.36359 10.6598C1.63601 10.9323 2.00537 11.0855 2.39062 11.0859H9.60938C9.99463 11.0855 10.364 10.9323 10.6364 10.6598C10.9088 10.3874 11.0621 10.0181 11.0625 9.63281V2.41406C11.0621 2.0288 10.9088 1.65945 10.6364 1.38703C10.364 1.11461 9.99463 0.961372 9.60938 0.960938H2.39062Z" />
  <path d="M6 7.62569C5.87568 7.62569 5.75645 7.5763 5.66854 7.4884C5.58064 7.40049 5.53125 7.28126 5.53125 7.15694V2.79944C5.53125 2.67512 5.58064 2.55589 5.66854 2.46798C5.75645 2.38007 5.87568 2.33069 6 2.33069C6.12432 2.33069 6.24355 2.38007 6.33146 2.46798C6.41936 2.55589 6.46875 2.67512 6.46875 2.79944V7.15694C6.46875 7.28126 6.41936 7.40049 6.33146 7.4884C6.24355 7.5763 6.12432 7.62569 6 7.62569Z" />
  <path d="M6.00015 7.95985C5.8961 7.96016 5.79301 7.93984 5.69686 7.90005C5.60071 7.86026 5.51341 7.8018 5.44 7.72805L3.62218 5.91048C3.53426 5.82255 3.48486 5.7033 3.48486 5.57895C3.48486 5.45461 3.53426 5.33535 3.62218 5.24743C3.71011 5.1595 3.82936 5.11011 3.95371 5.11011C4.07805 5.11011 4.19731 5.1595 4.28523 5.24743L6.00015 6.96259L7.71508 5.24743C7.75861 5.20389 7.8103 5.16936 7.86718 5.1458C7.92406 5.12223 7.98503 5.11011 8.0466 5.11011C8.10817 5.11011 8.16914 5.12223 8.22602 5.1458C8.2829 5.16936 8.33459 5.20389 8.37812 5.24743C8.42166 5.29097 8.45619 5.34265 8.47976 5.39953C8.50332 5.45642 8.51544 5.51738 8.51544 5.57895C8.51544 5.64052 8.50332 5.70149 8.47976 5.75837C8.45619 5.81525 8.42166 5.86694 8.37812 5.91048L6.56031 7.72805C6.4869 7.8018 6.39959 7.86026 6.30344 7.90005C6.2073 7.93984 6.10421 7.96016 6.00015 7.95985Z" />
  <path d="M8.04674 9.66931H3.95361C3.82929 9.66931 3.71006 9.61993 3.62216 9.53202C3.53425 9.44411 3.48486 9.32488 3.48486 9.20056C3.48486 9.07624 3.53425 8.95701 3.62216 8.86911C3.71006 8.7812 3.82929 8.73181 3.95361 8.73181H8.04674C8.17106 8.73181 8.29029 8.7812 8.37819 8.86911C8.4661 8.95701 8.51549 9.07624 8.51549 9.20056C8.51549 9.32488 8.4661 9.44411 8.37819 9.53202C8.29029 9.61993 8.17106 9.66931 8.04674 9.66931Z" />
</svg>
