<svg xmlns="http://www.w3.org/2000/svg" viewBox="0 0 24 24"><path d="M.75 24c-.414 0-.75-.336-.75-.75V.75C0 .336.336 0 .75 0s.75.336.75.75v.75h11.25C13.991 1.5 15 2.509 15 3.75V6h7.406c.007-.001.035-.002.062-.002.808 0 1.48.64 1.53 1.456L24 19.5c-.05.852-.73 1.501-1.548 1.501-.029 0-.058-.001-.088-.002L9 21c-1.241 0-2.25-1.009-2.25-2.25V16.5H1.5v6.75c0 .414-.336.75-.75.75zm21.656-4.5l.03.001c.036 0 .064-.02.066-.047L22.5 7.524c-.004-.008-.021-.025-.048-.025L15 7.5v8.25c0 .414-.336.75-.75.75-1.781 0-3.32 1.288-3.672 3h11.828zM8.25 18.75c0 .414.336.75.75.75h.058c.166-1.141.71-2.198 1.529-3H8.25v2.25zM13.5 15V3.75c0-.414-.336-.75-.75-.75H1.5v12h12z"/></svg>