<svg xmlns="http://www.w3.org/2000/svg" viewBox="0 0 24 24"><path d="M.5 24c-.276 0-.5-.224-.5-.5V.5C0 .224.224 0 .5 0s.5.224.5.5v2.333C2.793 2.327 4.638 2.047 6.487 2c1.578 0 3.516.517 5.39 1.016C13.691 3.5 15.565 4 17 4c1.703-.068 3.392-.397 5.011-.978.163-.054.325-.082.489-.082.827 0 1.5.673 1.5 1.499v13.878c0 .623-.392 1.189-.976 1.406-1.918.748-3.938 1.177-6 1.275h-.001c-1.591 0-3.528-.517-5.401-1.017C9.807 19.499 7.934 19 6.5 19c-1.852.047-3.703.34-5.5.873V23.5c0 .276-.224.5-.5.5zm5.994-6c1.572 0 3.51.517 5.385 1.017 1.815.484 3.688.983 5.121.983 1.934-.092 3.845-.499 5.667-1.21.201-.075.333-.264.333-.471V4.44c0-.133-.052-.259-.146-.353-.095-.095-.22-.147-.354-.147-.059.002-.116.011-.16.026-1.708.614-3.499.962-5.32 1.034h-.001c-1.586 0-3.524-.517-5.398-1.016C9.809 3.5 7.935 3 6.5 3c-1.858.047-3.709.34-5.5.87v14.959c1.787-.503 3.631-.782 5.487-.829h.007z"/><path d="M10.5 16c-.276 0-.5-.224-.5-.5s.224-.5.5-.5H12v-4.5c0-.276-.224-.5-.5-.5h-1c-.276 0-.5-.224-.5-.5s.224-.5.5-.5h1c.827 0 1.5.673 1.5 1.5V15h1.5c.276 0 .5.224.5.5s-.224.5-.5.5h-4z"/><circle cx="12.5" cy="7.25" r=".75"/></svg>