<svg xmlns="http://www.w3.org/2000/svg" viewBox="0 0 24 24"><path d="M.75 24c-.414 0-.75-.336-.75-.75V.75C0 .336.336 0 .75 0s.75.336.75.75v.38L3.684.459C4.672.155 5.697.001 6.731.001c1.919 0 3.797.531 5.43 1.537 1.396.859 3.005 1.313 4.651 1.313.823 0 1.64-.114 2.428-.339l2.369-.677c.167-.047.339-.072.512-.072.502 0 .973.195 1.327.548.356.353.552.824.552 1.325v15.808c0 .833-.559 1.574-1.359 1.803l-2.988.853c-.922.263-1.878.397-2.84.397-1.925 0-3.805-.531-5.438-1.535-1.397-.86-3.003-1.314-4.644-1.314-.884 0-1.761.132-2.606.392l-2.625.807v2.403c0 .414-.336.75-.75.75zm5.981-5.853c1.919 0 3.796.531 5.43 1.537 1.396.859 3.005 1.313 4.652 1.313.823 0 1.64-.114 2.428-.339l2.987-.853c.16-.046.272-.194.272-.361V3.637c0-.1-.039-.194-.11-.265-.071-.071-.165-.11-.266-.11-.035 0-.07.005-.104.014l-2.368.677c-.922.263-1.877.397-2.84.397-1.925 0-3.805-.531-5.438-1.535-1.397-.86-3.003-1.314-4.644-1.314-.884 0-1.761.132-2.606.392L1.5 2.699v16.579l2.184-.672c.988-.304 2.013-.459 3.047-.459z"/><path d="M13.5 17.25c-1.241 0-2.25-1.009-2.25-2.25v-3.75h-.75c-.414 0-.75-.336-.75-.75s.336-.75.75-.75h.75c.827 0 1.5.673 1.5 1.5V15c0 .414.336.75.75.75h.75c.414 0 .75.336.75.75s-.336.75-.75.75h-.75z"/><circle cx="11.625" cy="7.125" r="1.125"/></svg>