<svg viewBox="0 0 18 18" fill="currentColor" xmlns="http://www.w3.org/2000/svg">
<path d="M4.82609 0H0.652172C0.364014 0 0.130432 0.233582 0.130432 0.52174V4.69566C0.130432 4.98382 0.364014 5.2174 0.652172 5.2174H4.82609C5.11425 5.2174 5.34783 4.98382 5.34783 4.69566V0.52174C5.34783 0.233582 5.11425 0 4.82609 0Z" fill="currentColor"/>
<path d="M11.087 0H6.91307C6.62491 0 6.39133 0.233582 6.39133 0.52174V4.69566C6.39133 4.98382 6.62491 5.2174 6.91307 5.2174H11.087C11.3751 5.2174 11.6087 4.98382 11.6087 4.69566V0.52174C11.6087 0.233582 11.3751 0 11.087 0Z" fill="currentColor"/>
<path d="M4.82609 6.26099H0.652172C0.364014 6.26099 0.130432 6.49457 0.130432 6.78273V10.9566C0.130432 11.2448 0.364014 11.4784 0.652172 11.4784H4.82609C5.11425 11.4784 5.34783 11.2448 5.34783 10.9566V6.78273C5.34783 6.49457 5.11425 6.26099 4.82609 6.26099Z" fill="currentColor"/>
<path d="M11.087 6.26099H6.91307C6.62491 6.26099 6.39133 6.49457 6.39133 6.78273V10.9566C6.39133 11.2448 6.62491 11.4784 6.91307 11.4784H11.087C11.3751 11.4784 11.6087 11.2448 11.6087 10.9566V6.78273C11.6087 6.49457 11.3751 6.26099 11.087 6.26099Z" fill="currentColor"/>
<path d="M17.3479 0H13.174C12.8858 0 12.6522 0.233582 12.6522 0.52174V4.69566C12.6522 4.98382 12.8858 5.2174 13.174 5.2174H17.3479C17.636 5.2174 17.8696 4.98382 17.8696 4.69566V0.52174C17.8696 0.233582 17.636 0 17.3479 0Z" fill="currentColor"/>
<path d="M17.3479 6.26099H13.174C12.8858 6.26099 12.6522 6.49457 12.6522 6.78273V10.9566C12.6522 11.2448 12.8858 11.4784 13.174 11.4784H17.3479C17.636 11.4784 17.8696 11.2448 17.8696 10.9566V6.78273C17.8696 6.49457 17.636 6.26099 17.3479 6.26099Z" fill="currentColor"/>
<path d="M4.82609 12.7827H0.652172C0.364014 12.7827 0.130432 13.0163 0.130432 13.3045V17.4784C0.130432 17.7665 0.364014 18.0001 0.652172 18.0001H4.82609C5.11425 18.0001 5.34783 17.7665 5.34783 17.4784V13.3045C5.34783 13.0163 5.11425 12.7827 4.82609 12.7827Z" fill="currentColor"/>
<path d="M11.087 12.7827H6.91307C6.62491 12.7827 6.39133 13.0163 6.39133 13.3045V17.4784C6.39133 17.7665 6.62491 18.0001 6.91307 18.0001H11.087C11.3751 18.0001 11.6087 17.7665 11.6087 17.4784V13.3045C11.6087 13.0163 11.3751 12.7827 11.087 12.7827Z" fill="currentColor"/>
<path d="M17.3479 12.7827H13.174C12.8858 12.7827 12.6522 13.0163 12.6522 13.3045V17.4784C12.6522 17.7665 12.8858 18.0001 13.174 18.0001H17.3479C17.636 18.0001 17.8696 17.7665 17.8696 17.4784V13.3045C17.8696 13.0163 17.636 12.7827 17.3479 12.7827Z" fill="currentColor"/>
</svg>
