<svg viewBox="0 0 35 39" fill="currentColor" xmlns="http://www.w3.org/2000/svg">
<path d="M17.5095 38.0055C17.0083 38.0055 16.5398 37.7617 16.2584 37.3545L12.4767 31.8803C5.81869 29.8031 0.880371 23.6869 0.880371 16.3211C0.880371 7.30033 8.31797 0 17.5095 0C26.695 0 34.1386 7.29461 34.1386 16.3211C34.1386 23.6838 29.2032 29.8021 22.5423 31.8803L18.7605 37.3545C18.4792 37.7617 18.0106 38.0055 17.5095 38.0055ZM17.5095 2.96918C10.0073 2.96918 3.90385 8.95876 3.90385 16.3211C3.90385 22.505 8.16521 27.6234 13.8326 29.1796C14.1769 29.2741 14.4758 29.4855 14.6766 29.7759L17.5095 33.8766L20.3425 29.7758C20.5432 29.4854 20.8421 29.2741 21.1864 29.1796C26.8475 27.6251 31.1151 22.5111 31.1151 16.3211C31.1151 8.95876 25.0116 2.96918 17.5095 2.96918ZM19.24 10.1268C19.24 10.924 18.471 11.6373 17.5096 11.6373C16.527 11.6373 15.758 10.924 15.758 10.1268C15.758 9.32969 16.527 8.63742 17.5096 8.63742C18.4709 8.63742 19.24 9.32976 19.24 10.1268ZM19.1758 14.5532V22.5457C19.1758 23.0492 18.4282 23.5527 17.5096 23.5527C16.5484 23.5527 15.8648 23.0492 15.8648 22.5457V14.5532C15.8648 13.9658 16.5483 13.5672 17.5096 13.5672C18.4282 13.5672 19.1758 13.9658 19.1758 14.5532Z"/>
</svg>
