<svg xmlns="http://www.w3.org/2000/svg" viewBox="0 0 24 24"><path d="M2.25 6.003C1.009 6.003 0 4.994 0 3.753v-1.5C0 1.012 1.009.003 2.25.003h19.5c1.241 0 2.25 1.009 2.25 2.25v1.5c0 1.241-1.009 2.25-2.25 2.25H2.25zm0-4.5c-.414 0-.75.336-.75.75v1.5c0 .414.336.75.75.75h19.5c.414 0 .75-.336.75-.75v-1.5c0-.414-.336-.75-.75-.75H2.25zM2.25 15.003c-1.241 0-2.25-1.009-2.25-2.25v-1.5c0-1.241 1.009-2.25 2.25-2.25h19.5c1.241 0 2.25 1.009 2.25 2.25v1.5c0 1.241-1.009 2.25-2.25 2.25H2.25zm0-4.5c-.414 0-.75.336-.75.75v1.5c0 .414.336.75.75.75h19.5c.414 0 .75-.336.75-.75v-1.5c0-.414-.336-.75-.75-.75H2.25zM2.25 24.003c-1.241 0-2.25-1.009-2.25-2.25v-1.5c0-1.241 1.009-2.25 2.25-2.25h19.5c1.241 0 2.25 1.009 2.25 2.25v1.5c0 1.241-1.009 2.25-2.25 2.25H2.25zm0-4.5c-.414 0-.75.336-.75.75v1.5c0 .414.336.75.75.75h19.5c.414 0 .75-.336.75-.75v-1.5c0-.414-.336-.75-.75-.75H2.25z"/></svg>