<svg viewBox="0 0 18 18" fill="currentColor" xmlns="http://www.w3.org/2000/svg">
<path d="M15.8649 12.4647C18.7126 9.61697 18.7125 4.98332 15.8649 2.13557C13.0172 -0.712181 8.38355 -0.712181 5.53586 2.13557C3.11993 4.55149 2.75404 8.14459 4.4372 10.9504C4.4372 10.9504 4.5581 11.1533 4.39481 11.3164C3.46327 12.2479 0.668459 15.0428 0.668459 15.0428C-0.0732394 15.7844 -0.249807 16.8215 0.407928 17.4793L0.521175 17.5925C1.17891 18.2503 2.21605 18.0738 2.95769 17.3321C2.95769 17.3321 5.74658 14.5432 6.67621 13.6136C6.84733 13.4425 7.0501 13.5634 7.0501 13.5634C9.85587 15.2465 13.449 14.8806 15.8649 12.4647ZM6.88426 11.1163C4.78007 9.01206 4.78013 5.58834 6.88432 3.48415C8.98852 1.38001 12.4122 1.37995 14.5164 3.48415C16.6206 5.58828 16.6206 9.01206 14.5164 11.1163C12.4122 13.2203 8.98852 13.2203 6.88426 11.1163Z" fill="currentColor"/>
<path d="M7.34965 6.86702C7.25171 6.86702 7.15215 6.84777 7.05618 6.80724C6.67284 6.64499 6.49349 6.20268 6.65573 5.81927C7.67547 3.40944 10.4656 2.27854 12.8754 3.29828C13.2587 3.46052 13.4381 3.90284 13.2758 4.28624C13.1135 4.66964 12.6713 4.84888 12.2878 4.68669C10.6437 3.99098 8.73986 4.7626 8.04421 6.40673C7.92249 6.69428 7.64335 6.86702 7.34965 6.86702Z" fill="currentColor"/>
</svg>
