<svg width="152" height="48" viewBox="0 0 152 48" fill="none" xmlns="http://www.w3.org/2000/svg">
<g clip-path="url(#clip0)">
<path d="M0.00384521 0H152.004V48H0.00384521V0Z" fill="#2B2C33"/>
<path d="M36.856 13.0721C34.7866 11.6231 32.4454 10.8527 30.096 10.7137C29.4231 10.674 29.127 11.5446 29.6801 11.9299C29.687 11.9346 29.6937 11.9394 29.7005 11.9441C34.3046 15.1679 35.3563 21.574 31.9648 26.1091C28.7672 30.3848 22.8093 31.3866 18.3855 28.3973C18.3298 28.3596 18.2745 28.3215 18.2197 28.2828C17.6704 27.8955 16.9577 28.4737 17.2242 29.0907C18.1494 31.2318 19.6546 33.1534 21.6952 34.5986C27.6616 38.8241 35.8768 37.4052 40.0784 31.4221C44.2617 25.465 42.8168 17.2459 36.856 13.0721Z" fill="#7ED0C7"/>
<g clip-path="url(#clip1)">
<path d="M121.185 31.3934C117.108 31.3934 113.791 28.0768 113.791 24C113.791 19.9232 117.108 16.6066 121.185 16.6066C125.262 16.6066 128.578 19.9233 128.578 24C128.578 28.0767 125.262 31.3934 121.185 31.3934Z" fill="#D7CD56"/>
<path d="M121.185 14.0619C120.596 14.0619 120.119 13.5849 120.119 12.9965V6.88355C120.119 6.2952 120.596 5.81821 121.185 5.81821C121.773 5.81821 122.25 6.2952 122.25 6.88355V12.9965C122.25 13.5849 121.773 14.0619 121.185 14.0619Z" fill="#D7CD56"/>
<path d="M113.404 17.2847C113.132 17.2847 112.859 17.1807 112.651 16.9727L108.328 12.6501C107.912 12.2341 107.912 11.5596 108.328 11.1435C108.744 10.7275 109.419 10.7275 109.835 11.1435L114.157 15.466C114.574 15.8821 114.574 16.5566 114.157 16.9726C113.95 17.1806 113.677 17.2847 113.404 17.2847Z" fill="#D7CD56"/>
<path d="M110.181 25.0654H104.068C103.48 25.0654 103.003 24.5884 103.003 24C103.003 23.4117 103.48 22.9347 104.068 22.9347H110.181C110.77 22.9347 111.247 23.4117 111.247 24C111.247 24.5884 110.77 25.0654 110.181 25.0654Z" fill="#D7CD56"/>
<path d="M109.082 37.1686C108.809 37.1686 108.536 37.0646 108.328 36.8565C107.912 36.4405 107.912 35.766 108.328 35.3499L112.651 31.0274C113.067 30.6114 113.742 30.6114 114.157 31.0274C114.574 31.4435 114.574 32.118 114.157 32.534L109.835 36.8566C109.627 37.0645 109.354 37.1686 109.082 37.1686V37.1686Z" fill="#D7CD56"/>
<path d="M121.185 42.1818C120.596 42.1818 120.119 41.7048 120.119 41.1165V35.0035C120.119 34.4151 120.596 33.9381 121.185 33.9381C121.773 33.9381 122.25 34.4151 122.25 35.0035V41.1165C122.25 41.7048 121.773 42.1818 121.185 42.1818Z" fill="#D7CD56"/>
<path d="M133.288 37.1686C133.015 37.1686 132.743 37.0646 132.535 36.8566L128.212 32.5341C127.796 32.118 127.796 31.4435 128.212 31.0275C128.628 30.6114 129.303 30.6114 129.719 31.0275L134.041 35.35C134.457 35.766 134.457 36.4406 134.041 36.8566C133.833 37.0646 133.561 37.1686 133.288 37.1686Z" fill="#D7CD56"/>
<path d="M138.301 25.0654H132.188C131.6 25.0654 131.123 24.5884 131.123 24C131.123 23.4117 131.6 22.9347 132.188 22.9347H138.301C138.89 22.9347 139.367 23.4117 139.367 24C139.367 24.5884 138.89 25.0654 138.301 25.0654Z" fill="#D7CD56"/>
<path d="M128.965 17.2847C128.693 17.2847 128.42 17.1808 128.212 16.9727C127.796 16.5566 127.796 15.8821 128.212 15.4661L132.535 11.1435C132.951 10.7276 133.625 10.7275 134.041 11.1435C134.457 11.5596 134.457 12.2341 134.041 12.6501L129.719 16.9727C129.511 17.1807 129.238 17.2847 128.965 17.2847V17.2847Z" fill="#D7CD56"/>
</g>
<circle cx="76" cy="24.0208" r="16.5" fill="white" stroke="white"/>
</g>
<defs>
<clipPath id="clip0">
<rect width="152" height="48" fill="white"/>
</clipPath>
<clipPath id="clip1">
<rect width="40" height="40" fill="white" transform="translate(101.185 4)"/>
</clipPath>
</defs>
</svg>
