<svg width="152" height="48" viewBox="0 0 152 48" fill="none" xmlns="http://www.w3.org/2000/svg">
<g clip-path="url(#clip0)">
<path d="M0.00384521 0H152.004V48H0.00384521V0Z" fill="#2B2C33"/>
<circle cx="26" cy="24" r="16.5" stroke="#7ED0C7"/>
<path d="M31.3442 16.0608C29.8408 15.0081 28.1399 14.4484 26.4331 14.3474C25.9442 14.3185 25.7291 14.9511 26.131 15.231C26.1359 15.2344 26.1408 15.2378 26.1458 15.2413C29.4906 17.5834 30.2547 22.2374 27.7907 25.5321C25.4677 28.6384 21.1393 29.3662 17.9255 27.1945C17.885 27.1671 17.8448 27.1394 17.805 27.1113C17.406 26.8299 16.8882 27.25 17.0818 27.6982C17.7539 29.2537 18.8475 30.6498 20.3299 31.6997C24.6645 34.7695 30.6328 33.7387 33.6853 29.3919C36.7244 25.0642 35.6747 19.093 31.3442 16.0608Z" fill="#7ED0C7"/>
<circle cx="126" cy="24" r="16.5" stroke="#D7CD56"/>
<g clip-path="url(#clip1)">
<path d="M126 28.2792C123.882 28.2792 122.16 26.5564 122.16 24.4388C122.16 22.3211 123.882 20.5983 126 20.5983C128.118 20.5983 129.84 22.3212 129.84 24.4388C129.84 26.5564 128.118 28.2792 126 28.2792Z" fill="#D7CD56"/>
<path d="M126 19.2765C125.694 19.2765 125.447 19.0287 125.447 18.7231V15.5477C125.447 15.2421 125.694 14.9944 126 14.9944C126.306 14.9944 126.553 15.2421 126.553 15.5477V18.7231C126.553 19.0287 126.306 19.2765 126 19.2765Z" fill="#D7CD56"/>
<path d="M121.958 20.9506C121.817 20.9506 121.675 20.8966 121.567 20.7885L119.322 18.5432C119.106 18.327 119.106 17.9767 119.322 17.7606C119.538 17.5445 119.888 17.5445 120.104 17.7606L122.35 20.0059C122.566 20.222 122.566 20.5723 122.35 20.7885C122.242 20.8965 122.1 20.9506 121.958 20.9506Z" fill="#D7CD56"/>
<path d="M120.284 24.9922H117.109C116.803 24.9922 116.556 24.7444 116.556 24.4388C116.556 24.1332 116.803 23.8854 117.109 23.8854H120.284C120.59 23.8854 120.838 24.1332 120.838 24.4388C120.838 24.7444 120.59 24.9922 120.284 24.9922Z" fill="#D7CD56"/>
<path d="M119.713 31.2791C119.571 31.2791 119.43 31.2251 119.322 31.117C119.106 30.9009 119.106 30.5505 119.322 30.3344L121.567 28.0891C121.783 27.873 122.134 27.873 122.35 28.0891C122.566 28.3052 122.566 28.6556 122.35 28.8717L120.104 31.1171C119.996 31.2251 119.855 31.2791 119.713 31.2791V31.2791Z" fill="#D7CD56"/>
<path d="M126 33.8832C125.694 33.8832 125.447 33.6355 125.447 33.3299V30.1545C125.447 29.8489 125.694 29.6011 126 29.6011C126.306 29.6011 126.553 29.8489 126.553 30.1545V33.3299C126.553 33.6355 126.306 33.8832 126 33.8832Z" fill="#D7CD56"/>
<path d="M132.287 31.2791C132.145 31.2791 132.004 31.2251 131.896 31.1171L129.65 28.8718C129.434 28.6557 129.434 28.3053 129.65 28.0892C129.866 27.8731 130.217 27.8731 130.433 28.0892L132.678 30.3345C132.894 30.5506 132.894 30.901 132.678 31.1171C132.57 31.2251 132.429 31.2791 132.287 31.2791Z" fill="#D7CD56"/>
<path d="M134.891 24.9922H131.716C131.41 24.9922 131.162 24.7444 131.162 24.4388C131.162 24.1332 131.41 23.8854 131.716 23.8854H134.891C135.197 23.8854 135.444 24.1332 135.444 24.4388C135.444 24.7444 135.197 24.9922 134.891 24.9922Z" fill="#D7CD56"/>
<path d="M130.042 20.9506C129.9 20.9506 129.758 20.8966 129.65 20.7885C129.434 20.5724 129.434 20.222 129.65 20.0059L131.896 17.7606C132.112 17.5445 132.462 17.5445 132.678 17.7606C132.894 17.9767 132.894 18.3271 132.678 18.5432L130.433 20.7885C130.325 20.8965 130.183 20.9506 130.042 20.9506V20.9506Z" fill="#D7CD56"/>
</g>
<circle cx="76" cy="24.0208" r="16.5" fill="white" stroke="white"/>
</g>
<defs>
<clipPath id="clip0">
<rect width="152" height="48" fill="white"/>
</clipPath>
<clipPath id="clip1">
<rect width="20.7778" height="20.7778" fill="white" transform="translate(115.611 14.0499)"/>
</clipPath>
</defs>
</svg>
